<svg xmlns="http://www.w3.org/2000/svg" version="1.1" xmlns:xlink="http://www.w3.org/1999/xlink" xmlns:svgjs="http://svgjs.dev/svgjs" width="2000" height="464" viewBox="0 0 2000 464"><g transform="matrix(1,0,0,1,-1.2121212121210192,0.3347139712370222)"><svg viewBox="0 0 396 92" data-background-color="#efe1c6" preserveAspectRatio="xMidYMid meet" height="464" width="2000" xmlns="http://www.w3.org/2000/svg" xmlns:xlink="http://www.w3.org/1999/xlink"><g id="tight-bounds" transform="matrix(1,0,0,1,0.23999999999995225,-0.06636570119354701)"><svg viewBox="0 0 395.52 92.13273140238711" height="92.13273140238711" width="395.52"><g><svg viewBox="0 0 545.8698047480201 127.15532994923855" height="92.13273140238711" width="395.52"><g><rect width="10.058770946598983" height="112.09746192893398" x="113.95917268466994" y="7.528934010152284" fill="#000000" opacity="1" stroke-width="0" stroke="transparent" fill-opacity="1" class="rect-qz-0" data-fill-palette-color="primary" rx="1%" id="qz-0" data-palette-color="#33bbcf"></rect></g><g transform="matrix(1,0,0,1,150.34980474802018,7.8077834179356955)"><svg viewBox="0 0 395.5199999999999 111.53976311336716" height="111.53976311336716" width="395.5199999999999"><g id="textblocktransform"><svg viewBox="0 0 395.5199999999999 111.53976311336716" height="111.53976311336716" width="395.5199999999999" id="textblock"><g><svg viewBox="0 0 395.5199999999999 111.53976311336716" height="111.53976311336716" width="395.5199999999999"><g transform="matrix(1,0,0,1,0,0)"><svg width="395.5199999999999" viewBox="3.3 -37.5 177.28 50" height="111.53976311336716" data-palette-color="#33bbcf"><path d="M3.3 0L3.3-35 14.6-35Q18.9-35 22.25-32.9 25.6-30.8 27.5-26.85 29.4-22.9 29.4-17.5L29.4-17.5Q29.4-12.1 27.5-8.15 25.6-4.2 22.25-2.1 18.9 0 14.6 0L14.6 0 3.3 0ZM9.4-5.6L14.6-5.6Q18.6-5.6 20.65-8.75 22.7-11.9 22.7-17.5L22.7-17.5Q22.7-23.1 20.65-26.25 18.6-29.4 14.6-29.4L14.6-29.4 9.4-29.4 9.4-5.6ZM32.8-28.8L32.8-35 38.8-35 38.8-28.8 32.8-28.8ZM32.8 0L32.8-25 38.8-25 38.8 0 32.8 0ZM49.55 0L41.1-25 47.35-25 52.15-8 56.95-25 63.2-25 54.75 0 49.55 0ZM75.74 0.5Q71.94 0.5 69.29-1.25 66.64-3 65.32-5.95 63.99-8.9 63.99-12.5L63.99-12.5Q63.99-16.2 65.24-19.13 66.49-22.05 68.94-23.73 71.39-25.4 74.79-25.4L74.79-25.4Q79.04-25.4 81.49-22.4 83.94-19.4 83.94-14.35L83.94-14.35Q83.94-12.9 83.64-11.15L83.64-11.15 70.19-11.15Q70.49-7.75 72.19-6.08 73.89-4.4 76.39-4.4L76.39-4.4Q79.79-4.4 82.84-6.4L82.84-6.4 82.99-1.15Q79.94 0.5 75.74 0.5L75.74 0.5ZM70.24-15.35L77.89-15.35Q77.89-20.5 74.39-20.5L74.39-20.5Q70.94-20.5 70.24-15.35L70.24-15.35ZM87.59 0L87.59-35 97.79-35Q103.29-35 106.39-32.38 109.49-29.75 109.49-24.2L109.49-24.2Q109.49-20.95 108.19-18.5 106.89-16.05 104.54-14.7L104.54-14.7 111.24 0 104.39 0 98.69-13 98.14-13 93.69-13 93.69 0 87.59 0ZM93.69-18.3L97.24-18.3Q100.14-18.3 101.67-19.65 103.19-21 103.19-24L103.19-24Q103.19-27 101.67-28.35 100.14-29.7 97.24-29.7L97.24-29.7 93.69-29.7 93.69-18.3ZM113.29-28.8L113.29-35 119.29-35 119.29-28.8 113.29-28.8ZM113.29 0L113.29-25 119.29-25 119.29 0 113.29 0ZM132.49 12.5Q127.99 12.5 125.26 10.65 122.54 8.8 122.54 5.5L122.54 5.5Q122.54 3.65 123.49 2.25 124.44 0.85 126.29-0.25L126.29-0.25Q124.14-1.5 124.14-3.7L124.14-3.7Q124.14-5.85 126.49-7.25L126.49-7.25Q124.69-8.6 123.69-10.78 122.69-12.95 122.69-15.55L122.69-15.55Q122.69-18.3 123.76-20.55 124.84-22.8 126.89-24.1 128.94-25.4 131.69-25.4L131.69-25.4Q134.94-25.4 137.19-23.6L137.19-23.6Q139.24-25.4 141.39-25.4L141.39-25.4Q142.04-25.4 142.64-25.3L142.64-25.3 142.19-21.45Q141.69-21.55 141.19-21.55L141.19-21.55Q140.14-21.55 139.29-21.15L139.29-21.15Q140.69-18.75 140.69-15.55L140.69-15.55Q140.69-12.8 139.61-10.55 138.54-8.3 136.49-6.98 134.44-5.65 131.69-5.65L131.69-5.65Q130.59-5.65 129.79-5.85L129.79-5.85Q129.34-5.5 129.34-5L129.34-5Q129.34-4.5 129.69-4.23 130.04-3.95 130.89-3.75L130.89-3.75 136.04-2.55Q139.69-1.7 141.34-0.03 142.99 1.65 142.99 4.65L142.99 4.65Q142.99 7 141.66 8.78 140.34 10.55 137.94 11.53 135.54 12.5 132.49 12.5L132.49 12.5ZM131.69-10.15Q133.34-10.15 134.26-11.63 135.19-13.1 135.19-15.55L135.19-15.55Q135.19-17.95 134.26-19.43 133.34-20.9 131.69-20.9L131.69-20.9Q129.99-20.9 129.09-19.43 128.19-17.95 128.19-15.55L128.19-15.55Q128.19-13.1 129.09-11.63 129.99-10.15 131.69-10.15L131.69-10.15ZM132.64 8Q134.94 8 136.36 7.23 137.79 6.45 137.79 5L137.79 5Q137.79 3.8 137.01 3.13 136.24 2.45 134.34 2L134.34 2 130.04 0.95Q128.69 1.75 128.01 2.63 127.34 3.5 127.34 4.65L127.34 4.65Q127.34 6.25 128.79 7.13 130.24 8 132.64 8L132.64 8ZM156.83-25.4Q160.58-25.4 162.56-22.93 164.53-20.45 164.53-16.25L164.53-16.25 164.53 0 158.53 0 158.53-15.45Q158.53-20.5 155.13-20.5L155.13-20.5Q152.78-20.5 151.28-18.35L151.28-18.35 151.28 0 145.28 0 145.28-37.5 151.28-37.5 151.28-23.55Q153.53-25.4 156.83-25.4L156.83-25.4ZM176.08 0.5Q173.23 0.5 171.71-1.15 170.18-2.8 170.18-6.05L170.18-6.05 170.18-19.9 167.38-19.9 167.93-25 170.18-25 170.18-30.5 176.18-31.15 176.18-25 180.53-25 180.53-19.9 176.18-19.9 176.18-7.6Q176.18-6.05 176.81-5.33 177.43-4.6 178.78-4.6L178.78-4.6 180.58-4.6 180.03 0.5 176.08 0.5Z" opacity="1" transform="matrix(1,0,0,1,0,0)" fill="#000000" class="wordmark-text-0" data-fill-palette-color="primary" id="text-0"></path></svg></g></svg></g></svg></g></svg></g><g><svg viewBox="0 0 87.62731156791867 127.15532994923855" height="127.15532994923855" width="87.62731156791867"><g><svg xmlns="http://www.w3.org/2000/svg" xmlns:xlink="http://www.w3.org/1999/xlink" version="1.1" x="0" y="0" viewBox="22.108965257373338 10.2349243 54.78639377907355 79.50012219999999" style="enable-background:new 0 0 100 100;" xml:space="preserve" height="127.15532994923855" width="87.62731156791867" class="icon-icon-0" data-fill-palette-color="accent" id="icon-0"><path d="M51.21 77.458h-8c-0.552 0-1 0.447-1 1 0 0.704-0.573 1.277-1.276 1.277h-2.446c-0.704 0-1.277-0.573-1.278-1.277V66.225c0-0.288-0.124-0.562-0.339-0.751-0.216-0.189-0.503-0.278-0.789-0.24-0.485 0.063-0.877 0.092-1.235 0.092h-2.642c-1.236 0-2.445-0.255-3.594-0.757-0.309-0.137-0.667-0.106-0.948 0.079-0.282 0.185-0.453 0.499-0.453 0.837v12.973c0 6.219 5.059 11.277 11.278 11.277h2.446c6.218 0 11.277-5.059 11.276-11.277C52.21 77.905 51.763 77.458 51.21 77.458z" fill="#000000" data-fill-palette-color="accent"></path><path d="M53.511 70.342c-0.881-0.657-1.991-0.854-3.045-0.543-2.17 0.643-4.465 0.643-6.636 0-1.055-0.312-2.164-0.114-3.045 0.543-0.881 0.658-1.387 1.666-1.387 2.766v0.489c0 1.125 0.916 2.041 2.041 2.041h11.418c1.125 0 2.041-0.916 2.041-2.041v-0.489C54.898 72.008 54.393 71.001 53.511 70.342z" fill="#000000" data-fill-palette-color="accent"></path><g fill="#000000" data-fill-palette-color="accent"><path d="M74.638 38.253c-1.541-1.604-3.614-2.486-5.837-2.487h-38.597c-2.224 0-4.297 0.883-5.838 2.488-1.541 1.604-2.34 3.71-2.25 5.931l0.33 8.265C22.683 58.358 27.5 62.986 33.413 62.986h2.642c5.592 0 12.269-4.332 12.839-10.185l0.083-1.915c0.008-0.289 0.283-0.542 0.528-0.51 0.284 0.002 0.513 0.227 0.522 0.525l0.087 1.978c0.564 5.785 7.13 10.107 12.624 10.107h2.853c5.913 0 10.73-4.628 10.967-10.536l0.331-8.265C76.978 41.964 76.178 39.856 74.638 38.253zM72.257 52.133c-0.185 3.787-3.3 6.754-7.092 6.754h-2.195c-4.864 0-8.888-3.65-9.36-8.492-0.002-0.024-0.006-0.135-0.006-0.16-0.046-2.217-1.886-4.02-4.102-4.019-2.216 0-4.056 1.803-4.101 4.017-0.001 0.025-0.004 0.137-0.007 0.162-0.472 4.842-4.496 8.492-9.36 8.492h-2.195c-3.792 0-6.907-2.967-7.092-6.754l-0.352-7.209c-0.068-1.41 0.43-2.749 1.403-3.771 0.974-1.022 2.287-1.585 3.698-1.585h36.013c1.411 0 2.725 0.563 3.698 1.585s1.471 2.361 1.402 3.771L72.257 52.133z" fill="#000000" data-fill-palette-color="accent"></path><path d="M67.509 41.568H31.496c-0.858 0-1.657 0.343-2.25 0.964-0.592 0.622-0.895 1.437-0.853 2.294l0.352 7.21c0.133 2.721 2.371 4.852 5.094 4.851h2.195c3.83 0 6.998-2.874 7.37-6.685 0.065-3.306 2.802-5.986 6.098-5.986s6.034 2.681 6.102 5.976c0.369 3.821 3.537 6.695 7.366 6.695h2.195c2.724 0 4.961-2.131 5.094-4.851l0.352-7.21c0.042-0.857-0.261-1.672-0.853-2.294C69.166 41.911 68.367 41.568 67.509 41.568z" fill="#000000" data-fill-palette-color="accent"></path></g><g fill="#000000" data-fill-palette-color="accent"><path d="M35.211 22.451h-6c-0.828 0-1.5 0.672-1.5 1.5v1c0 0.828 0.672 1.5 1.5 1.5h6c0.828 0 1.5-0.672 1.5-1.5v-1C36.711 23.123 36.039 22.451 35.211 22.451z" fill="#000000" data-fill-palette-color="accent"></path><path d="M35.211 27.451h-6c-0.828 0-1.5 0.672-1.5 1.5v2.156c0 0.828 0.672 1.5 1.5 1.5h6c0.828 0 1.5-0.672 1.5-1.5v-2.156C36.711 28.123 36.039 27.451 35.211 27.451z" fill="#000000" data-fill-palette-color="accent"></path><path d="M32.211 10.235c-2.481 0-4.5 2.019-4.5 4.5v5.216c0 0.828 0.672 1.5 1.5 1.5h6c0.828 0 1.5-0.672 1.5-1.5v-5.216C36.711 12.253 34.692 10.235 32.211 10.235z" fill="#000000" data-fill-palette-color="accent"></path></g></svg></g></svg></g></svg></g><defs></defs></svg><rect width="395.52" height="92.13273140238711" fill="none" stroke="none" visibility="hidden"></rect></g></svg></g></svg>